<svg width="25" height="25" viewBox="0 0 25 25" fill="none" xmlns="http://www.w3.org/2000/svg">
<path d="M6.78818 14.9198L5.2361 21.6406C5.18803 21.8441 5.20246 22.0574 5.2775 22.2526C5.35253 22.4478 5.48468 22.6158 5.65669 22.7347C5.8287 22.8536 6.03257 22.9179 6.24167 22.9191C6.45078 22.9204 6.65539 22.8585 6.8288 22.7416L12.5007 18.9604L18.1726 22.7416C18.35 22.8595 18.5592 22.9201 18.7722 22.9154C18.9851 22.9108 19.1915 22.841 19.3636 22.7155C19.5357 22.5901 19.6652 22.4149 19.7348 22.2136C19.8044 22.0123 19.8106 21.7945 19.7528 21.5896L17.8476 14.9229L22.5726 10.6708C22.7239 10.5346 22.832 10.3569 22.8834 10.1599C22.9349 9.96286 22.9274 9.75507 22.862 9.56221C22.7966 9.36936 22.6762 9.1999 22.5155 9.0748C22.3548 8.9497 22.161 8.87443 21.958 8.85831L16.0194 8.3854L13.4496 2.69686C13.3677 2.51369 13.2345 2.35814 13.0661 2.249C12.8977 2.13986 12.7013 2.08179 12.5007 2.08179C12.3 2.08179 12.1036 2.13986 11.9353 2.249C11.7669 2.35814 11.6337 2.51369 11.5517 2.69686L8.98193 8.3854L3.04339 8.85727C2.84386 8.87308 2.65311 8.94603 2.49396 9.06741C2.33482 9.18879 2.214 9.35344 2.14598 9.54168C2.07796 9.72992 2.06561 9.93377 2.11041 10.1288C2.15521 10.3239 2.25526 10.5019 2.3986 10.6416L6.78818 14.9198Z" fill="white"/>
</svg>
