<svg width="25" height="25" viewBox="0 0 25 25" fill="none" xmlns="http://www.w3.org/2000/svg">
<path d="M17.1875 8.33328C17.1875 9.89578 16.6667 11.9791 14.1667 12.8124C14.8958 11.0416 15 9.27078 14.4792 7.60411C13.75 5.41661 11.3542 3.74995 9.6875 2.81245C9.27083 2.49995 8.54167 2.91661 8.64583 3.54161C8.64583 4.68745 8.33333 6.35411 6.5625 8.12495C4.27083 10.4166 3.125 12.8124 3.125 15.1041C3.125 18.1249 5.20833 21.8749 9.375 21.8749C5.20833 17.7083 8.33333 14.0624 8.33333 14.0624C9.16667 20.2083 13.5417 21.8749 15.625 21.8749C17.3958 21.8749 20.8333 20.6249 20.8333 15.2083C20.8333 11.9791 19.4792 9.47911 18.3333 8.02078C18.0208 7.49995 17.2917 7.81245 17.1875 8.33328Z" fill="#222222"/>
</svg>
