<svg width="25" height="26" viewBox="0 0 25 26" fill="none" xmlns="http://www.w3.org/2000/svg">
<path d="M5.20833 2.58325C4.05937 2.58325 3.125 3.51763 3.125 4.66659V17.1666C3.125 18.3155 4.05937 19.2499 5.20833 19.2499H8.94375L12.5 22.8062L16.0562 19.2499H19.7917C20.9406 19.2499 21.875 18.3155 21.875 17.1666V4.66659C21.875 3.51763 20.9406 2.58325 19.7917 2.58325H5.20833ZM19.7917 17.1666H15.1938L12.5 19.8603L9.80625 17.1666H5.20833V4.66659H19.7917V17.1666Z" fill="#222222"/>
<path d="M7.29102 7.79175H17.7077V9.87508H7.29102V7.79175ZM7.29102 11.9584H14.5827V14.0417H7.29102V11.9584Z" fill="#222222"/>
</svg>
