<svg width="19" height="19" viewBox="0 0 19 19" fill="none" xmlns="http://www.w3.org/2000/svg">
<path d="M4.3154 15.331C4.3154 15.7348 4.4758 16.1221 4.76131 16.4076C5.04682 16.6931 5.43406 16.8535 5.83784 16.8535H13.45C13.8538 16.8535 14.241 16.6931 14.5265 16.4076C14.812 16.1221 14.9724 15.7348 14.9724 15.331V6.19645H16.4949V4.67402H13.45V3.15158C13.45 2.74781 13.2896 2.36057 13.0041 2.07506C12.7186 1.78955 12.3313 1.62915 11.9276 1.62915H7.36027C6.95649 1.62915 6.56926 1.78955 6.28375 2.07506C5.99823 2.36057 5.83784 2.74781 5.83784 3.15158V4.67402H2.79297V6.19645H4.3154V15.331ZM7.36027 3.15158H11.9276V4.67402H7.36027V3.15158ZM6.59905 6.19645H13.45V15.331H5.83784V6.19645H6.59905Z" fill="white"/>
<path d="M7.35938 7.71899H8.88181V13.8087H7.35938V7.71899ZM10.4042 7.71899H11.9267V13.8087H10.4042V7.71899Z" fill="white"/>
</svg>
