<svg width="25" height="25" viewBox="0 0 25 25" fill="none" xmlns="http://www.w3.org/2000/svg">
<path d="M5.20833 20.8334C5.20833 21.3859 5.42783 21.9158 5.81853 22.3065C6.20923 22.6972 6.73913 22.9167 7.29167 22.9167H17.7083C18.2609 22.9167 18.7908 22.6972 19.1815 22.3065C19.5722 21.9158 19.7917 21.3859 19.7917 20.8334V8.33337H21.875V6.25004H17.7083V4.16671C17.7083 3.61417 17.4888 3.08427 17.0981 2.69357C16.7074 2.30287 16.1775 2.08337 15.625 2.08337H9.375C8.82247 2.08337 8.29256 2.30287 7.90186 2.69357C7.51116 3.08427 7.29167 3.61417 7.29167 4.16671V6.25004H3.125V8.33337H5.20833V20.8334ZM9.375 4.16671H15.625V6.25004H9.375V4.16671ZM8.33333 8.33337H17.7083V20.8334H7.29167V8.33337H8.33333Z" fill="#222222"/>
<path d="M9.375 10.4166H11.4583V18.75H9.375V10.4166ZM13.5417 10.4166H15.625V18.75H13.5417V10.4166Z" fill="#222222"/>
</svg>
