<svg width="20" height="19" viewBox="0 0 20 19" fill="none" xmlns="http://www.w3.org/2000/svg">
<path d="M15.2451 1.63672L17.5293 3.9209L15.788 5.66297L13.5038 3.37879L15.2451 1.63672ZM6.87891 12.2871H9.16309L14.7114 6.73882L12.4272 4.45464L6.87891 10.0029V12.2871Z" fill="white"/>
<path d="M15.2526 14.5715H6.99758C6.97778 14.5715 6.95723 14.5791 6.93743 14.5791C6.91231 14.5791 6.88718 14.5722 6.86129 14.5715H4.5931V3.91195H9.80636L11.3291 2.38916H4.5931C3.75328 2.38916 3.07031 3.07137 3.07031 3.91195V14.5715C3.07031 15.412 3.75328 16.0942 4.5931 16.0942H15.2526C15.6565 16.0942 16.0438 15.9338 16.3294 15.6482C16.615 15.3627 16.7754 14.9753 16.7754 14.5715V7.9717L15.2526 9.49449V14.5715Z" fill="white"/>
</svg>
