<svg width="25" height="26" viewBox="0 0 25 26" fill="none" xmlns="http://www.w3.org/2000/svg">
<path d="M20.834 8.83325H14.9882L16.1579 5.32596C16.3684 4.69263 16.2621 3.99054 15.8715 3.44888C15.4809 2.90721 14.8475 2.58325 14.1798 2.58325H12.5007C12.1913 2.58325 11.8986 2.72075 11.6996 2.95825L6.80378 8.83325H4.16732C3.01836 8.83325 2.08398 9.76763 2.08398 10.9166V20.2916C2.08398 21.4405 3.01836 22.3749 4.16732 22.3749H18.0288C18.4526 22.3735 18.8661 22.2435 19.2144 22.0021C19.5628 21.7607 19.8297 21.4192 19.9798 21.0228L22.8517 13.3655C22.8953 13.2486 22.9175 13.1247 22.9173 12.9999V10.9166C22.9173 9.76763 21.9829 8.83325 20.834 8.83325ZM4.16732 10.9166H6.25065V20.2916H4.16732V10.9166ZM20.834 12.8114L18.0288 20.2916H8.33398V10.252L12.9882 4.66659H14.1819L12.5548 9.54471C12.502 9.70129 12.4873 9.8682 12.5118 10.0316C12.5364 10.195 12.5996 10.3502 12.6961 10.4843C12.7927 10.6185 12.9198 10.7276 13.067 10.8028C13.2141 10.878 13.3771 10.917 13.5423 10.9166H20.834V12.8114Z" fill="#222222"/>
</svg>
