<svg width="12" height="13" viewBox="0 0 12 13" fill="none" xmlns="http://www.w3.org/2000/svg">
<path d="M10.6207 4.40701H7.33741L7.99442 2.43716C8.1126 2.08145 8.05292 1.68713 7.83353 1.3829C7.61414 1.07868 7.25843 0.896729 6.88341 0.896729H5.94032C5.76656 0.896729 5.60216 0.973955 5.49042 1.10735L2.74069 4.40701H1.25994C0.614631 4.40701 0.0898438 4.9318 0.0898438 5.57711V10.8425C0.0898438 11.4878 0.614631 12.0126 1.25994 12.0126H9.04516C9.28321 12.0118 9.51542 11.9388 9.71108 11.8032C9.90673 11.6676 10.0566 11.4759 10.141 11.2532L11.7539 6.95255C11.7784 6.88686 11.7909 6.81731 11.7908 6.7472V5.57711C11.7908 4.9318 11.266 4.40701 10.6207 4.40701ZM1.25994 5.57711H2.43003V10.8425H1.25994V5.57711ZM10.6207 6.64131L9.04516 10.8425H3.60013V5.20385L6.21412 2.06682H6.88458L5.97074 4.8066C5.94107 4.89454 5.9328 4.98829 5.9466 5.08007C5.96041 5.17185 5.99589 5.25901 6.05011 5.33434C6.10433 5.40966 6.17573 5.47098 6.25838 5.5132C6.34103 5.55542 6.43255 5.57733 6.52536 5.57711H10.6207V6.64131Z" fill="#222222"/>
</svg>
